<svg id="Layer_1" data-name="Layer 1" xmlns="http://www.w3.org/2000/svg" viewBox="0 0 16.13 16.13"><defs><style>.cls-1{fill:#05fcac;}.cls-2{fill:#03d5f8;}</style></defs><path class="cls-1" d="M13.32,7.81h0l0,0-.06,0,0,0h0l-1.55-.52a.34.34,0,0,0-.43.22.33.33,0,0,0,0,.26.32.32,0,0,0,.2.18l.69.23L8.28,9.71l-4.92-2a.23.23,0,0,0-.16,0h0a.37.37,0,0,0-.2.12H3L1.48,9.73a.33.33,0,0,0-.07.29.36.36,0,0,0,.19.23l1.29.6v2.5a.34.34,0,0,0,.2.31l5,2.38h0a.32.32,0,0,0,.14,0,.4.4,0,0,0,.15,0h0l4.75-2.37a.36.36,0,0,0,.19-.31V10.82l1.14-.58A.31.31,0,0,0,14.7,10a.32.32,0,0,0,0-.28ZM10,11.73,8.83,10.22l4.08-1.79.95,1.38Zm-6.43-.55,3.07,1.44a.42.42,0,0,0,.15,0,.33.33,0,0,0,.28-.16l.86-1.28v4l-4.36-2Zm-.2-.86h0l-1.08-.5L3.34,8.42l4.42,1.82L6.67,11.87Zm5.24,4.85V11.08l1,1.3a.37.37,0,0,0,.27.13.29.29,0,0,0,.16,0l2.62-1.31v2Z"/><path class="cls-2" d="M4.07,7.16h5.6A1.18,1.18,0,0,0,10.85,6V5.11A1.18,1.18,0,0,0,9.67,3.93H4.07A1.18,1.18,0,0,0,2.89,5.11V6A1.18,1.18,0,0,0,4.07,7.16ZM10.16,6a.49.49,0,0,1-.49.49H4.07A.49.49,0,0,1,3.58,6V5.11a.49.49,0,0,1,.49-.49h5.6a.49.49,0,0,1,.49.49Z"/><path class="cls-2" d="M6.7,5.11a.34.34,0,0,0-.34-.34H4.55a.34.34,0,1,0,0,.68H6.36A.34.34,0,0,0,6.7,5.11Z"/><path class="cls-2" d="M9,5.54H6.85a.35.35,0,0,0-.35.35.35.35,0,0,0,.35.34H9a.34.34,0,0,0,.34-.34A.35.35,0,0,0,9,5.54Z"/><path class="cls-2" d="M13.55.06H8A1.17,1.17,0,0,0,6.77,1.23v.88A1.18,1.18,0,0,0,8,3.28h5.6a1.17,1.17,0,0,0,1.17-1.17V1.23A1.17,1.17,0,0,0,13.55.06ZM14,2.11a.48.48,0,0,1-.49.48H8a.48.48,0,0,1-.49-.48V1.23A.48.48,0,0,1,8,.75h5.6a.48.48,0,0,1,.49.48Z"/><path class="cls-2" d="M10.58,1.24a.35.35,0,0,0-.34-.35H8.42a.35.35,0,0,0-.34.35.34.34,0,0,0,.34.34h1.82A.34.34,0,0,0,10.58,1.24Z"/><path class="cls-2" d="M12.87,1.67H10.73a.35.35,0,0,0-.35.34.35.35,0,0,0,.35.35h2.14A.35.35,0,0,0,13.22,2,.35.35,0,0,0,12.87,1.67Z"/></svg>