<svg id="Layer_1" data-name="Layer 1" xmlns="http://www.w3.org/2000/svg" viewBox="0 0 16.13 16.13"><defs><style>.cls-1{fill:#05fcac;}.cls-2{fill:#03d5f8;}</style></defs><path class="cls-1" d="M14.39,7.42a3.32,3.32,0,0,0-1.6-2.83A19.12,19.12,0,0,0,12.27,2a.92.92,0,0,0-.43-.56.94.94,0,0,0-.7-.09.93.93,0,0,0-.56.43.9.9,0,0,0-.1.64l-3.7,2H2.43a.87.87,0,0,0-.87.85H1.4A1.41,1.41,0,0,0,0,6.65V8.38a1.4,1.4,0,0,0,1.4,1.4h.16a.88.88,0,0,0,.87.86h0v3.41a.8.8,0,0,0,.8.8h.51a1.74,1.74,0,0,0,1.73-1.73V10.64H6.78l3.7,2a.93.93,0,0,0,.69,1.08l.21,0a.92.92,0,0,0,.9-.71,25.41,25.41,0,0,0,.5-2.78A3.31,3.31,0,0,0,14.39,7.42ZM12.9,5.62a2.53,2.53,0,0,1,.75,1.8,2.57,2.57,0,0,1-.76,1.82A23,23,0,0,0,12.9,5.62ZM3.78,14.1H3.27a0,0,0,0,1,0,0V10.64H4.76v2.48A1,1,0,0,1,3.78,14.1ZM6.56,9.89H2.43a.13.13,0,0,1-.13-.13V5.27a.13.13,0,0,1,.13-.13H6.56A15.76,15.76,0,0,1,6.56,9.89Zm4.69,2.72a.3.3,0,0,0,0-.12,21.19,21.19,0,0,0-.07-10.24.22.22,0,0,1,0-.14A.15.15,0,0,1,11.34,2h0a.15.15,0,0,1,.09,0,.15.15,0,0,1,.08.11,21.56,21.56,0,0,1,0,10.71.21.21,0,0,1-.08.11.19.19,0,0,1-.13,0,.21.21,0,0,1-.11-.08.2.2,0,0,1,0-.13ZM7.29,5l3.37-1.84a20.53,20.53,0,0,1,0,8.76L7.29,10.06A16.09,16.09,0,0,0,7.29,5ZM1.56,6V9H1.4a.66.66,0,0,1-.65-.66V6.65A.66.66,0,0,1,1.4,6Z"/><path class="cls-2" d="M14,10.26a.37.37,0,0,0-.53.53l.89.89a.39.39,0,0,0,.27.11.36.36,0,0,0,.26-.11.37.37,0,0,0,0-.53Z"/><path class="cls-2" d="M13.85,4.48a.36.36,0,0,0,.26-.11l.9-.89A.37.37,0,1,0,14.48,3l-.89.89a.39.39,0,0,0-.11.27.38.38,0,0,0,.37.37Z"/><path class="cls-2" d="M15.75,7H15a.38.38,0,0,0,0,.75h.8a.38.38,0,1,0,0-.75Z"/></svg>