<svg id="Layer_1" data-name="Layer 1" xmlns="http://www.w3.org/2000/svg" viewBox="0 0 16.13 16.13"><defs><style>.cls-1{fill:#05fcac;}.cls-2{fill:#03d5f8;}</style></defs><path class="cls-1" d="M3.15,4.87l8.73,6.39c-.77,1.44-2.19,2.11-4.06,3.2-2.38-1.38-4-2.1-4.53-4.55l3.44,2.45c0-.76,0-1-.69-1.5L3.86,9.39a1.58,1.58,0,0,1-.73-1.33V7.51L8.29,11v-.12a1.34,1.34,0,0,0-.51-1.22L3.8,7a1.5,1.5,0,0,1-.67-1.29V4.87h0m0-.79h0a.79.79,0,0,0-.8.79v.79a2.36,2.36,0,0,0,.33,1.21.81.81,0,0,0-.33.64v.55a2.36,2.36,0,0,0,.39,1.3.77.77,0,0,0-.2.71c.53,2.59,2.19,3.53,4.28,4.72l.62.35a.83.83,0,0,0,.4.11.8.8,0,0,0,.4-.11l.61-.35c1.66-.94,3-1.68,3.75-3.16a.79.79,0,0,0-.23-1L3.62,4.23a.8.8,0,0,0-.47-.15Z"/><path class="cls-2" d="M7.78,1.67a4.2,4.2,0,0,1,1.15.16,3.43,3.43,0,0,1,2.15,1.55c1.87.46,2.14,1.88,1.79,3.41-.15-.36-.7-.47-1.32-.47a11.36,11.36,0,0,0-2.29.31h0a1.74,1.74,0,0,1,.39,0c.55,0,1.1.24,1.52.26a1.27,1.27,0,0,0-.4.94c.59.45,1.2.91,1.7,1.26a6.74,6.74,0,0,1-.27,1.43l-1.4-1L10,8.84l-6.81-5A7.49,7.49,0,0,1,7.78,1.67m0-.79a8.23,8.23,0,0,0-5.2,2.4.8.8,0,0,0-.22.62.77.77,0,0,0,.32.58l6.81,5,.84.62,1.4,1a.81.81,0,0,0,.47.16,1.09,1.09,0,0,0,.25,0,.8.8,0,0,0,.51-.52,7.34,7.34,0,0,0,.3-1.6.79.79,0,0,0-.33-.72c-.38-.26-.81-.58-1.25-.92l.09-.1a1.28,1.28,0,0,0,.15-.25,2.46,2.46,0,0,1,.27.06.78.78,0,0,0,.68.4h.07A.8.8,0,0,0,13.65,7c.49-2.15-.26-3.69-2.06-4.27A4.29,4.29,0,0,0,9.15,1.07,4.82,4.82,0,0,0,7.78.88Z"/><polyline class="cls-2" points="8.74 3.89 9.83 3.48 7.75 2.61 8.74 3.89"/></svg>