<?xml version="1.0" encoding="UTF-8"?>
<svg id="Layer_2" data-name="Layer 2" xmlns="http://www.w3.org/2000/svg" xmlns:xlink="http://www.w3.org/1999/xlink" viewBox="0 0 58.52 58.52">
  <defs>
    <style>
      .cls-1 {
        fill: url(#linear-gradient);
      }
    </style>
    <linearGradient id="linear-gradient" x1="0" y1="29.26" x2="58.52" y2="29.26" gradientUnits="userSpaceOnUse">
      <stop offset="0" stop-color="#00d6f3"/>
      <stop offset="1" stop-color="#04faaf"/>
    </linearGradient>
  </defs>
  <g id="Layer_1-2" data-name="Layer 1">
    <g>
      <circle class="cls-1" cx="29.26" cy="29.26" r="29.26"/>
      <g>
        <path d="M23,41.62c-.18,.23-.41,.4-.67,.52-.26,.12-.55,.18-.86,.18-.42,0-.8-.09-1.14-.27-.34-.18-.73-.5-1.17-.96-.51-.07-.97-.23-1.37-.49-.4-.26-.72-.61-.94-1.02s-.34-.88-.34-1.39c0-.56,.13-1.06,.4-1.5,.27-.45,.64-.79,1.11-1.05,.47-.25,1-.38,1.59-.38s1.12,.13,1.59,.38c.47,.25,.84,.6,1.11,1.05s.41,.95,.41,1.5c0,.66-.19,1.24-.55,1.73-.37,.5-.86,.84-1.47,1.04,.13,.14,.27,.24,.39,.3,.13,.06,.26,.09,.41,.09,.35,0,.66-.14,.92-.42l.58,.7Zm-4.92-2.5c.15,.27,.37,.49,.63,.64,.27,.15,.57,.23,.91,.23s.64-.08,.91-.23c.27-.15,.48-.37,.63-.64,.15-.28,.23-.59,.23-.94s-.08-.66-.23-.94c-.15-.28-.37-.49-.63-.64-.27-.15-.57-.23-.91-.23s-.64,.08-.91,.23c-.27,.15-.48,.37-.63,.64-.15,.28-.23,.59-.23,.94s.08,.66,.23,.94Z"/>
        <path d="M24.33,40.44c-.45-.45-.68-1.09-.68-1.92v-3.17h1.31v3.12c0,1.01,.42,1.52,1.26,1.52,.41,0,.72-.12,.94-.37,.22-.25,.32-.63,.32-1.15v-3.12h1.29v3.17c0,.83-.22,1.47-.68,1.92-.45,.45-1.08,.67-1.89,.67s-1.44-.22-1.89-.67Z"/>
        <path d="M30.08,35.34h1.31v5.67h-1.31v-5.67Z"/>
        <path d="M33.88,40.73c-.47-.25-.83-.6-1.1-1.04-.27-.45-.4-.95-.4-1.51s.13-1.06,.4-1.51c.27-.45,.63-.79,1.1-1.04,.47-.25,.99-.38,1.57-.38,.49,0,.93,.09,1.33,.26,.4,.17,.73,.42,1,.75l-.84,.78c-.38-.44-.86-.66-1.42-.66-.35,0-.66,.08-.94,.23-.27,.15-.49,.37-.64,.64-.15,.28-.23,.59-.23,.94s.08,.66,.23,.94c.15,.27,.37,.49,.64,.64,.28,.15,.59,.23,.94,.23,.57,0,1.04-.22,1.42-.67l.84,.78c-.27,.33-.6,.58-1,.75-.4,.17-.84,.26-1.34,.26-.58,0-1.1-.12-1.57-.38Z"/>
        <path d="M40.73,38.78l-.76,.79v1.43h-1.3v-5.67h1.3v2.65l2.51-2.65h1.46l-2.35,2.52,2.48,3.14h-1.53l-1.81-2.23Z"/>
        <path d="M24.57,45.06v5.67h-1.31v-2.32h-2.57v2.32h-1.31v-5.67h1.31v2.23h2.57v-2.23h1.31Z"/>
        <path d="M30.3,49.67v1.05h-4.39v-5.67h4.28v1.05h-2.98v1.23h2.63v1.02h-2.63v1.31h3.08Z"/>
        <path d="M31.34,45.06h1.31v4.6h2.84v1.07h-4.15v-5.67Z"/>
        <path d="M39.99,45.31c.37,.17,.65,.4,.85,.71,.2,.31,.3,.67,.3,1.09s-.1,.78-.3,1.09c-.2,.31-.48,.55-.85,.71-.37,.16-.8,.25-1.31,.25h-1.14v1.56h-1.31v-5.67h2.45c.5,0,.94,.08,1.31,.25Zm-.48,2.53c.21-.17,.31-.41,.31-.72s-.1-.56-.31-.73-.5-.25-.9-.25h-1.07v1.97h1.07c.39,0,.69-.08,.9-.26Z"/>
      </g>
      <g>
        <path d="M39.57,12.74h-2.31l1.09-2.4c.15-.32,.17-.68,.05-1.02s-.37-.6-.69-.75c-.32-.15-.69-.16-1.02-.03-.33,.13-.59,.38-.73,.71l-1.59,3.48c-.26,.57-.22,1.24,.12,1.77s.93,.85,1.56,.85h2.31l-1.09,2.4h0c-.15,.32-.17,.68-.05,1.02s.37,.6,.69,.75c.32,.15,.69,.16,1.02,.03,.33-.13,.59-.38,.73-.71l1.59-3.48c.26-.57,.22-1.24-.12-1.77-.34-.53-.93-.85-1.56-.85h0Z"/>
        <path d="M24.41,30.07h9.16c1.39,0,2.72-.55,3.7-1.53,.98-.98,1.53-2.31,1.53-3.7v-1.64c0-.47-.25-.9-.65-1.13-.4-.23-.9-.23-1.31,0s-.65,.67-.65,1.13v1.64c0,.69-.28,1.36-.77,1.85-.49,.49-1.16,.77-1.85,.77h-9.16c-.69,0-1.36-.28-1.85-.77-.49-.49-.77-1.16-.77-1.85V15.68c0-.69,.28-1.36,.77-1.85,.49-.49,1.16-.77,1.85-.77h5.89c.47,0,.9-.25,1.13-.65,.23-.4,.23-.9,0-1.31s-.67-.65-1.13-.65h-5.89c-1.39,0-2.72,.55-3.7,1.53-.98,.98-1.53,2.31-1.53,3.7v9.16c0,1.39,.55,2.72,1.53,3.7,.98,.98,2.31,1.53,3.7,1.53Z"/>
        <path d="M26.7,18.3c0,.72-.59,1.31-1.31,1.31s-1.31-.59-1.31-1.31,.59-1.31,1.31-1.31,1.31,.59,1.31,1.31"/>
        <path d="M33.89,18.3c0,.72-.59,1.31-1.31,1.31s-1.31-.59-1.31-1.31,.59-1.31,1.31-1.31,1.31,.59,1.31,1.31"/>
        <path d="M29.43,25.13c.49-.09,.95-.31,1.32-.65,.37-.34,.63-.77,.76-1.26,.13-.47,.12-.98-.03-1.45-.11-.32-.41-.54-.75-.54h-3.49c-.34,0-.64,.21-.75,.54-.08,.25-.12,.51-.12,.77,0,.77,.34,1.5,.93,2,.59,.5,1.37,.71,2.13,.58h0Z"/>
      </g>
    </g>
  </g>
</svg>