<svg xmlns="http://www.w3.org/2000/svg" viewBox="0 0 13.45 13.48"><defs><style>.cls-1{fill:#fff;opacity:0.4;}</style></defs><title>i</title><g id="Layer_2" data-name="Layer 2"><g id="Layer_1-2" data-name="Layer 1"><path class="cls-1" d="M6.72,13.48a6.6,6.6,0,0,1-4.75-2A6.73,6.73,0,0,1,6.72,0a6.65,6.65,0,0,1,4.76,2A6.72,6.72,0,0,1,6.72,13.48ZM6.72.67A6,6,0,0,0,2.44,2.46a6.11,6.11,0,0,0,0,8.6,6.16,6.16,0,0,0,4.28,1.75A6,6,0,0,0,11,11h0a6.11,6.11,0,0,0,0-8.59A6.13,6.13,0,0,0,6.72.67Zm.51,3.54a.54.54,0,0,1-.44.17.65.65,0,0,1-.44-.17.55.55,0,0,1-.16-.43.64.64,0,0,1,.16-.44.55.55,0,0,1,.44-.17.71.71,0,0,1,.44.17.54.54,0,0,1,.17.44A.5.5,0,0,1,7.23,4.21ZM6.32,10V5.43a.15.15,0,0,1,.13-.14h.68a.14.14,0,0,1,.13.14V10a.14.14,0,0,1-.13.14H6.45C6.39,10.11,6.32,10,6.32,10Z"/></g></g></svg>