<svg id="Layer_1" data-name="Layer 1" xmlns="http://www.w3.org/2000/svg" viewBox="0 0 16.13 16.13"><defs><style>.cls-1{fill:#05fcac;}.cls-2{fill:#03d5f8;}</style></defs><path class="cls-1" d="M9.12,14.68h0a1.43,1.43,0,0,1,0-.21,1.58,1.58,0,0,0,.41-.72c.05-.24.15-.74.18-1a2,2,0,0,0,0-.67,1.66,1.66,0,0,0-1.72-1.32,1.66,1.66,0,0,0-1.72,1.35,2.16,2.16,0,0,0,0,.63c0,.26.12.75.17,1a1.66,1.66,0,0,0,.41.73,1.31,1.31,0,0,1,0,.2h0l-1.33.69a.37.37,0,0,0-.17.2.36.36,0,0,0,0,.27.35.35,0,0,0,.47.14l1.11-.58A1.69,1.69,0,0,0,8,15.74a1.54,1.54,0,0,0,1-.34l1.15.59.16,0a.34.34,0,0,0,.31-.19.33.33,0,0,0,0-.26.34.34,0,0,0-.17-.2Zm-1.65.2a1.54,1.54,0,0,0,1,0s0,0,0,.08a1,1,0,0,1-.46.09,1.1,1.1,0,0,1-.51-.1S7.47,14.91,7.47,14.88ZM8.6,11.82l-.1.06a2.8,2.8,0,0,1-1.59.33v0a1,1,0,0,1,1-.72,1.15,1.15,0,0,1,.84.33A.37.37,0,0,0,8.6,11.82Zm0,.81a.84.84,0,0,0,.39.35,6,6,0,0,1-.12.59.9.9,0,0,1-1.75,0c0-.17-.1-.45-.13-.68A4.6,4.6,0,0,0,8.55,12.63Z"/><path class="cls-1" d="M5.29,12.64a1.32,1.32,0,0,1,0-.27,1.62,1.62,0,0,1,.3,0h.11v-.11a3.11,3.11,0,0,1,0-.33s.06-.25.06-.25h0a3.29,3.29,0,0,1,.16-.33L6,11.26a1.67,1.67,0,0,1,.39-.36l.06,0,0-.07a9.71,9.71,0,0,1-.18-1.65V9s0,0,0,0,0-.21,0-.32A2.28,2.28,0,0,0,3.86,6.83,2.28,2.28,0,0,0,1.49,8.61a2.9,2.9,0,0,0,0,.74,6.5,6.5,0,0,1-.72,2.87.34.34,0,0,0,.05.43.36.36,0,0,0,.43,0,2.31,2.31,0,0,1,1.22-.33,1.23,1.23,0,0,1,0,.27h0s-1.4.58-1.81.79a.34.34,0,1,0,.31.61c.27-.13,1.12-.49,1.54-.67.34.41.85,1.16,1.13,1.57l0,0a.34.34,0,0,0,.29.16A.35.35,0,0,0,4.14,15l0,0c.28-.41.87-1.37,1.21-1.78C5.37,13.17,5.3,12.64,5.29,12.64ZM3.86,12A1.51,1.51,0,0,1,2.4,10.84c0-.18-.1-.48-.15-.78a3,3,0,0,0,1.8-.64,1.65,1.65,0,0,0,1.23.5h.21c-.06.33-.13.71-.18.92A1.5,1.5,0,0,1,3.86,12ZM2.17,8.71A1.6,1.6,0,0,1,3.86,7.52,1.59,1.59,0,0,1,5.54,8.74c0,.11,0,.2,0,.29V9.2a1.07,1.07,0,0,1-1.08-.34,1.85,1.85,0,0,0,.2-.57A.34.34,0,0,0,4.64,8a.38.38,0,0,0-.22-.15.35.35,0,0,0-.26.06A.33.33,0,0,0,4,8.16a1.5,1.5,0,0,1-.19.47,2,2,0,0,1-1.68.74h0c0-.29,0-.48,0-.53h0Zm1,3.83a2.07,2.07,0,0,0,1.47,0,1.65,1.65,0,0,0,.1.5c-.26.32-.59.77-.83,1.14-.35-.5-.63-.89-.84-1.15A2,2,0,0,0,3.12,12.54ZM2,11.69l-.32.06c0-.13.09-.27.12-.41A2.43,2.43,0,0,0,2,11.69Z"/><path class="cls-1" d="M15.48,13.49l-2-1a.27.27,0,0,0-.12,0,1.72,1.72,0,0,1,0-.49h0a2.33,2.33,0,0,0,.58-1c.08-.34.22-1.06.27-1.43a2.81,2.81,0,0,0,0-.94,2.27,2.27,0,0,0-2.36-1.79A2.28,2.28,0,0,0,9.45,8.53v.06a2.79,2.79,0,0,0,0,.88A11,11,0,0,0,9.7,10.9a2.16,2.16,0,0,0,.59,1h0c0,.05-.06.63-.1,1a.39.39,0,0,0,.15.35,2.66,2.66,0,0,0,1.51.48,2.16,2.16,0,0,0,1.53-.53l1.79.91a.4.4,0,0,0,.15,0,.34.34,0,0,0,.16-.65ZM11,12.41a2.08,2.08,0,0,0,1.66,0,1.75,1.75,0,0,0,.08.41,1.5,1.5,0,0,1-.88.22,1.68,1.68,0,0,1-.94-.23A3.53,3.53,0,0,0,11,12.41Zm1.87-4.15a1.11,1.11,0,0,0-.33.21.93.93,0,0,1-.72.2.87.87,0,0,1-.7-.2,1.45,1.45,0,0,0-.33-.21.59.59,0,0,0-.23,0,.62.62,0,0,0-.32.09,1.72,1.72,0,0,1,1.59-.87,1.71,1.71,0,0,1,1.58.87A.61.61,0,0,0,12.86,8.26ZM10.2,9.77a2.36,2.36,0,0,1,.35-.86l.14.1a1.48,1.48,0,0,0,1.07.35h.05A1.6,1.6,0,0,0,13,9l.13-.09a2.41,2.41,0,0,1,.35.84.15.15,0,0,0,0,.07c-.06.33-.13.7-.18.91a1.5,1.5,0,0,1-1.45,1.15,1.49,1.49,0,0,1-1.45-1.14c-.06-.25-.13-.62-.18-.92C10.19,9.81,10.2,9.79,10.2,9.77Z"/><path class="cls-2" d="M13.77.11H2.35A2.24,2.24,0,0,0,.11,2.35v.76A2.26,2.26,0,0,0,2.24,5.36l.64.83a.35.35,0,0,0,.27.13.35.35,0,0,0,.18-.05l1.5-.91H6.94l.88.86a.35.35,0,0,0,.49,0l.88-.86h2.44l1.13.89a.35.35,0,0,0,.49-.06l.63-.83A2.27,2.27,0,0,0,16,3.11V2.35A2.24,2.24,0,0,0,13.77.11Zm1.56,2.24v.76a1.56,1.56,0,0,1-1.56,1.56h-.06a.34.34,0,0,0-.27.13l-.53.69L12,4.74a.31.31,0,0,0-.21-.07H9.05a.35.35,0,0,0-.25.1l-.74.72-.74-.72a.31.31,0,0,0-.24-.1H4.73a.31.31,0,0,0-.18,0l-1.31.8L2.69,4.8a.35.35,0,0,0-.27-.13H2.35A1.56,1.56,0,0,1,.8,3.11V2.35A1.56,1.56,0,0,1,2.35.8H13.77A1.56,1.56,0,0,1,15.33,2.35Z"/></svg>