<svg id="Layer_1" data-name="Layer 1" xmlns="http://www.w3.org/2000/svg" viewBox="0 0 16.13 16.13"><defs><style>.cls-1{fill:#03d5f8;}.cls-2{fill:#05fcac;}</style></defs><path class="cls-1" d="M4.44,7.19A2.44,2.44,0,1,1,6.88,4.75,2.44,2.44,0,0,1,4.44,7.19Zm0-4A1.52,1.52,0,1,0,6,4.75,1.52,1.52,0,0,0,4.44,3.23Z"/><path class="cls-1" d="M11.68,7.19a2.44,2.44,0,1,1,2.45-2.44A2.44,2.44,0,0,1,11.68,7.19Zm0-4a1.6,1.6,0,1,0,1.61,1.6A1.6,1.6,0,0,0,11.68,3.15Z"/><path class="cls-2" d="M14.78,8.43a.48.48,0,0,0-.41-.24H9.71a.07.07,0,0,0-.06,0,.08.08,0,0,0,0,.08c.11.17.21.35.33.52l.18.26a.07.07,0,0,0,.06,0H14.1l.54,1-.09.12a10.92,10.92,0,0,1-2.8,2.71l-.13.08-.12-.08A11.13,11.13,0,0,1,8.45,9.84a11,11,0,0,1-.77-1.38l-.11-.22a.08.08,0,0,0-.07-.05H1.75a.5.5,0,0,0-.41.24L.42,10.07a.11.11,0,0,0,0,.08l.13.2a11.53,11.53,0,0,0,3.73,3.58l.19.1h.07l.18-.1a9.6,9.6,0,0,0,2.07-1.59.08.08,0,0,0,0-.1c-.16-.2-.31-.41-.47-.63a.05.05,0,0,0,0,0l-.06,0a11.12,11.12,0,0,1-1.59,1.3L4.5,13l-.12-.08a11.08,11.08,0,0,1-2.81-2.71l-.08-.12.53-1H7L7,9.24a10.15,10.15,0,0,0,.66,1.11,11.45,11.45,0,0,0,3.72,3.58l.19.1h.07l.18-.1a11.48,11.48,0,0,0,3.73-3.58l.14-.2a.11.11,0,0,0,0-.08Z"/></svg>