<?xml version="1.0" encoding="utf-8"?>
<!-- Generator: Adobe Illustrator 24.3.0, SVG Export Plug-In . SVG Version: 6.00 Build 0)  -->
<svg version="1.1" xmlns="http://www.w3.org/2000/svg" xmlns:xlink="http://www.w3.org/1999/xlink" x="0px" y="0px"
	 viewBox="0 0 47.56 14.18" style="enable-background:new 0 0 47.56 14.18;" xml:space="preserve">
<style type="text/css">
	.st0{fill:#2F323B;}
	.st1{fill:#23262D;}
	.st2{fill:#23242C;}
	.st3{fill:#282A31;}
	.st4{fill:#F8306D;}
	.st5{fill:#FFFFFF;}
	.st6{fill:none;stroke:#FFFFFF;stroke-width:1.5;stroke-linecap:round;stroke-miterlimit:10;}
	.st7{fill:none;stroke:#23242C;stroke-miterlimit:10;}
	.st8{fill:none;stroke:#FFFFFF;stroke-width:1.5;stroke-miterlimit:10;}
	.st9{fill:none;stroke:#FFFFFF;stroke-width:0.5;stroke-miterlimit:10;}
	.st10{fill:#03D5F7;stroke:#FFFFFF;stroke-width:1.5374;stroke-linecap:round;stroke-linejoin:round;stroke-miterlimit:10;}
	.st11{fill:none;stroke:#FFFFFF;stroke-width:1.5374;stroke-linecap:round;stroke-linejoin:round;stroke-miterlimit:10;}
	.st12{fill:url(#SVGID_1_);}
	.st13{fill:none;stroke:#FFFFFF;stroke-width:1.4882;stroke-linecap:round;stroke-linejoin:round;stroke-miterlimit:10;}
	.st14{fill:url(#SVGID_2_);}
	.st15{fill:url(#SVGID_3_);}
	.st16{fill:none;stroke:#BBBBBB;stroke-miterlimit:10;}
	.st17{fill:none;stroke:url(#SVGID_4_);stroke-linecap:round;stroke-miterlimit:10;}
	.st18{fill:none;stroke:url(#SVGID_5_);stroke-linecap:round;stroke-miterlimit:10;}
	.st19{fill:#03D5F7;stroke:#E20613;stroke-miterlimit:10;}
	.st20{fill:#373943;}
	.st21{fill:url(#SVGID_6_);}
	.st22{fill:url(#SVGID_7_);}
	.st23{fill:#1E2025;}
	.st24{fill:none;stroke:#FFFFFF;stroke-width:0.8898;stroke-linecap:round;stroke-linejoin:round;stroke-miterlimit:10;}
	.st25{fill:none;stroke:#FFFFFF;stroke-width:1.3825;stroke-linecap:round;stroke-linejoin:round;stroke-miterlimit:10;}
	.st26{fill:#05FCAC;}
	.st27{fill:none;stroke:#FFFFFF;stroke-width:1.0508;stroke-linecap:round;stroke-linejoin:round;stroke-miterlimit:10;}
	.st28{fill:url(#SVGID_8_);}
	.st29{fill:url(#SVGID_9_);}
	.st30{fill:url(#SVGID_10_);}
	.st31{fill:url(#SVGID_11_);}
	.st32{fill:url(#SVGID_12_);}
	.st33{opacity:0.5;}
	.st34{opacity:0.8;fill:none;stroke:#FFFFFF;stroke-width:0.2674;stroke-miterlimit:10;}
	.st35{opacity:0.8;fill:#FFFFFF;}
	.st36{fill:#03D5F7;}
	.st37{fill:#3A3A3A;stroke:#3A3A3A;stroke-width:0.2;stroke-miterlimit:10;}
	.st38{fill:#FF0000;}
	.st39{fill:none;stroke:#373943;stroke-width:1.5;stroke-miterlimit:10;}
	.st40{fill:none;stroke:#373943;stroke-width:1.5;stroke-linecap:round;stroke-miterlimit:10;}
	.st41{fill:#3A3A3A;}
	.st42{fill:none;stroke:#23242C;stroke-linecap:round;stroke-miterlimit:10;}
	.st43{fill:url(#SVGID_13_);}
	.st44{fill:url(#SVGID_14_);}
	.st45{fill:url(#SVGID_15_);}
	.st46{fill:url(#SVGID_19_);}
	.st47{fill:url(#SVGID_20_);}
	.st48{fill:url(#SVGID_21_);}
	.st49{fill:url(#SVGID_22_);}
	.st50{fill:url(#SVGID_23_);}
	.st51{fill:url(#SVGID_24_);}
	.st52{fill:url(#SVGID_25_);}
	.st53{fill:url(#SVGID_26_);}
	.st54{fill:url(#SVGID_27_);}
	.st55{fill:none;stroke:#03D5F7;stroke-linecap:round;stroke-miterlimit:10;}
	.st56{fill:#03D5F8;}
	.st57{fill:url(#SVGID_28_);}
	.st58{fill:url(#SVGID_29_);}
	.st59{fill:url(#SVGID_30_);}
	.st60{fill:url(#SVGID_31_);}
	.st61{fill:url(#SVGID_32_);}
	.st62{fill:#202228;}
	.st63{fill:none;stroke:#FFFFFF;stroke-linecap:round;stroke-miterlimit:10;}
	.st64{fill:url(#SVGID_33_);}
	.st65{fill:#BA083E;}
	.st66{opacity:0.65;fill-rule:evenodd;clip-rule:evenodd;fill:#1C1C1E;}
	.st67{fill:none;stroke:#FFFFFF;stroke-width:0.75;stroke-miterlimit:10;}
	.st68{fill:url(#SVGID_34_);}
	.st69{fill:url(#SVGID_35_);}
	.st70{fill:url(#SVGID_36_);}
	.st71{fill:url(#SVGID_37_);}
	.st72{fill:url(#SVGID_38_);}
	.st73{fill:url(#SVGID_39_);}
	.st74{fill:url(#SVGID_40_);}
	.st75{fill:url(#SVGID_41_);}
	.st76{fill:url(#SVGID_42_);}
	.st77{fill:url(#SVGID_43_);}
	.st78{fill:none;stroke:#FFFFFF;stroke-width:0.75;stroke-linecap:round;stroke-miterlimit:10;}
	.st79{fill:url(#SVGID_44_);}
	
		.st80{fill-rule:evenodd;clip-rule:evenodd;fill:none;stroke:#FFFFFF;stroke-width:1.1713;stroke-linecap:round;stroke-linejoin:round;stroke-miterlimit:10;}
	.st81{fill:url(#SVGID_45_);}
	.st82{fill:url(#SVGID_46_);}
	.st83{fill:url(#SVGID_47_);}
	.st84{fill:url(#SVGID_48_);}
	.st85{fill:url(#SVGID_49_);}
	.st86{fill:url(#SVGID_50_);}
	.st87{fill:url(#SVGID_51_);}
	.st88{fill:url(#SVGID_52_);}
	.st89{fill:url(#SVGID_53_);}
	.st90{fill:url(#SVGID_54_);}
	.st91{fill:url(#SVGID_55_);}
	.st92{fill:url(#SVGID_56_);}
	
		.st93{fill-rule:evenodd;clip-rule:evenodd;fill:none;stroke:#FFFFFF;stroke-width:1.33;stroke-linecap:round;stroke-linejoin:round;stroke-miterlimit:10;}
	.st94{fill:url(#SVGID_57_);}
	.st95{fill:url(#SVGID_58_);}
	.st96{clip-path:url(#SVGID_60_);fill:#FFFFFF;}
	.st97{fill:url(#SVGID_61_);}
	.st98{fill:#6E7076;}
	.st99{fill:url(#SVGID_62_);}
	.st100{fill:url(#SVGID_63_);}
	.st101{fill:url(#SVGID_64_);}
	.st102{fill:url(#SVGID_65_);}
	.st103{fill:url(#SVGID_66_);}
	.st104{fill:url(#SVGID_67_);}
	.st105{fill:url(#SVGID_68_);}
	.st106{fill:url(#SVGID_69_);}
	.st107{fill:url(#SVGID_70_);}
	.st108{fill:url(#SVGID_71_);}
	.st109{fill:url(#SVGID_72_);}
	.st110{fill:url(#SVGID_73_);}
	.st111{fill:url(#SVGID_74_);}
	.st112{fill:url(#SVGID_75_);}
	.st113{fill:url(#SVGID_76_);}
	.st114{fill:url(#SVGID_77_);}
	.st115{fill:url(#SVGID_78_);}
	.st116{fill:url(#SVGID_79_);}
	.st117{fill:none;stroke:#FFFFFF;stroke-width:0.8894;stroke-linecap:round;stroke-linejoin:round;stroke-miterlimit:10;}
	.st118{fill:#31323C;}
	.st119{fill:#3A3D46;}
	.st120{fill:url(#SVGID_80_);}
	.st121{fill:#31323C;stroke:#31323C;stroke-width:0.1335;stroke-miterlimit:10;}
	.st122{fill:#3A3D46;stroke:#4DC1E4;stroke-width:0.1954;stroke-miterlimit:10;}
	.st123{fill:#4DC1E4;}
	.st124{fill:#F2F2F2;stroke:#F2F2F2;stroke-width:0.1335;stroke-miterlimit:10;}
	.st125{fill:url(#SVGID_81_);}
	.st126{fill:url(#SVGID_82_);}
	.st127{fill:none;stroke:#03D5F7;stroke-width:0.1335;stroke-miterlimit:10;}
	
		.st128{opacity:0.5;fill:none;stroke:#FFFFFF;stroke-width:0.2669;stroke-linecap:round;stroke-linejoin:round;stroke-miterlimit:10;}
	.st129{fill:none;stroke:#31323C;stroke-width:0.2669;stroke-miterlimit:10;}
	.st130{fill:#444851;}
	.st131{fill:url(#SVGID_83_);}
	.st132{fill:#45C1EE;}
	.st133{fill:#89DBD3;}
	.st134{fill:#15FF7F;}
	.st135{fill:#B3B3B2;}
	.st136{fill:#46C655;}
	.st137{fill:#333333;}
	.st138{fill:#A96ED6;}
	.st139{fill-rule:evenodd;clip-rule:evenodd;fill:#333533;}
	.st140{clip-path:url(#SVGID_84_);}
	.st141{fill-rule:evenodd;clip-rule:evenodd;fill:#F4F0E4;}
	.st142{fill-rule:evenodd;clip-rule:evenodd;fill:#CCCBCB;}
	.st143{fill-rule:evenodd;clip-rule:evenodd;fill:#989898;}
	.st144{fill-rule:evenodd;clip-rule:evenodd;fill:#8D908C;}
	.st145{fill-rule:evenodd;clip-rule:evenodd;fill:#B3B3B2;}
	.st146{clip-path:url(#SVGID_85_);}
	.st147{fill:#E5D68C;}
	.st148{clip-path:url(#SVGID_86_);}
	.st149{fill:#AFAFAF;}
	.st150{fill:url(#SVGID_87_);}
	.st151{fill:url(#SVGID_88_);}
	.st152{fill:url(#SVGID_89_);}
	.st153{fill:url(#SVGID_90_);}
	.st154{fill:none;stroke:#3A3D46;stroke-width:0.2669;stroke-linecap:round;stroke-linejoin:round;stroke-miterlimit:10;}
	.st155{fill:url(#SVGID_91_);}
	.st156{fill:url(#SVGID_92_);}
	.st157{fill:none;stroke:#373943;stroke-width:1.4992;stroke-miterlimit:10;}
	.st158{fill:none;stroke:#373943;stroke-width:1.4992;stroke-linecap:round;stroke-miterlimit:10;}
	.st159{opacity:0.3;fill:none;stroke:#FFFFFF;stroke-width:0.0633;stroke-miterlimit:10;}
	.st160{fill:url(#SVGID_93_);}
	.st161{fill:url(#SVGID_94_);}
	.st162{fill:#494B54;}
	.st163{opacity:0.4;}
	.st164{opacity:0.59;fill:#31323C;}
	.st165{fill:#DCDDDD;}
	.st166{fill:url(#SVGID_95_);}
	.st167{fill:url(#SVGID_96_);}
	.st168{fill:#05FBAC;}
	.st169{fill:url(#SVGID_97_);}
	.st170{fill:url(#SVGID_98_);}
	.st171{fill:url(#SVGID_99_);}
	.st172{fill:url(#SVGID_100_);}
	.st173{fill:url(#SVGID_101_);}
	.st174{fill:url(#SVGID_102_);}
	.st175{fill:url(#SVGID_103_);}
	.st176{fill:url(#SVGID_104_);}
	.st177{fill:url(#SVGID_105_);}
	.st178{fill:url(#SVGID_106_);}
	.st179{fill:url(#SVGID_107_);}
	.st180{fill:url(#SVGID_108_);}
	.st181{fill:url(#SVGID_109_);}
	.st182{fill:url(#SVGID_110_);}
	.st183{fill:url(#SVGID_111_);}
	.st184{fill:url(#SVGID_112_);}
	.st185{opacity:0.3;}
	.st186{fill:url(#SVGID_113_);}
	.st187{fill:url(#SVGID_114_);}
	.st188{fill:none;stroke:#DCDDDD;stroke-width:0.0831;stroke-linecap:round;stroke-linejoin:round;stroke-miterlimit:10;}
	.st189{opacity:0.59;fill:none;stroke:#FFFFFF;stroke-width:0.0771;stroke-miterlimit:10;}
	.st190{opacity:0.59;fill:none;stroke:#4DC1E4;stroke-width:0.0771;stroke-miterlimit:10;}
	.st191{opacity:0.59;fill:#D1D1D1;}
	.st192{opacity:0.3;fill:none;stroke:#FFFFFF;stroke-width:0.0672;stroke-miterlimit:10;}
	.st193{fill-rule:evenodd;clip-rule:evenodd;fill:#24262D;}
	.st194{fill-rule:evenodd;clip-rule:evenodd;fill:url(#SVGID_115_);}
	.st195{fill:#959EA0;fill-opacity:0.5;}
	.st196{fill:#5C6267;}
	.st197{fill:#62686E;}
	.st198{fill:#24262D;}
	.st199{fill:#959EA0;}
	.st200{opacity:0.5;fill:#AAAAAA;}
	.st201{fill:none;stroke:#373943;stroke-width:0.4997;stroke-miterlimit:10;}
	.st202{fill:none;stroke:url(#SVGID_116_);stroke-width:0.9995;stroke-miterlimit:10;}
	.st203{fill:none;stroke:#4DC1E4;stroke-width:0.9995;stroke-linecap:round;stroke-miterlimit:10;}
	.st204{fill:none;stroke:url(#SVGID_117_);stroke-width:0.9995;stroke-miterlimit:10;}
	.st205{fill:#3A3A3A;stroke:#3A3A3A;stroke-width:0.1999;stroke-miterlimit:10;}
	.st206{fill:url(#SVGID_118_);}
	.st207{fill:url(#SVGID_119_);}
	.st208{fill:url(#SVGID_120_);}
	.st209{fill:url(#SVGID_121_);}
	.st210{fill:url(#SVGID_122_);}
	.st211{fill:url(#SVGID_123_);}
	.st212{fill:url(#SVGID_124_);}
	.st213{fill:url(#SVGID_125_);}
	.st214{fill:url(#SVGID_126_);}
	.st215{fill:url(#SVGID_127_);}
	.st216{fill:url(#SVGID_128_);}
	.st217{fill:url(#SVGID_129_);}
	.st218{fill:url(#SVGID_130_);}
	.st219{fill:url(#SVGID_131_);}
	.st220{fill:url(#SVGID_132_);}
	.st221{fill:url(#SVGID_133_);}
	.st222{fill:url(#SVGID_134_);}
	.st223{fill:url(#SVGID_135_);}
	.st224{fill:url(#SVGID_136_);}
	.st225{fill:url(#SVGID_137_);}
	.st226{fill:url(#SVGID_138_);}
	.st227{fill:url(#SVGID_139_);}
	.st228{fill:url(#SVGID_140_);}
	.st229{fill:url(#SVGID_141_);}
	.st230{fill:url(#SVGID_142_);}
	.st231{fill:url(#SVGID_143_);}
	.st232{fill:url(#SVGID_146_);}
	.st233{fill:url(#SVGID_147_);}
	.st234{clip-path:url(#SVGID_149_);fill:#FFFFFF;}
	.st235{fill:none;stroke:#05FCAC;stroke-width:1.3825;stroke-linecap:round;stroke-linejoin:round;stroke-miterlimit:10;}
	.st236{fill:none;stroke:#03D5F8;stroke-width:1.3825;stroke-linecap:round;stroke-linejoin:round;stroke-miterlimit:10;}
	.st237{fill:none;stroke:#23262D;stroke-width:0.88;stroke-miterlimit:10;}
	.st238{fill:none;stroke:#05FCAC;stroke-width:1.5;stroke-linecap:round;stroke-linejoin:round;stroke-miterlimit:10;}
	.st239{fill:none;stroke:#03D5F8;stroke-width:1.5;stroke-linecap:round;stroke-linejoin:round;stroke-miterlimit:10;}
	.st240{fill:#03D5F7;stroke:#03D5F7;stroke-width:1.5374;stroke-linecap:round;stroke-linejoin:round;stroke-miterlimit:10;}
	.st241{fill:none;stroke:#03D5F7;stroke-width:1.5374;stroke-linecap:round;stroke-linejoin:round;stroke-miterlimit:10;}
	.st242{fill:none;stroke:#05FCAC;stroke-width:1.5374;stroke-linecap:round;stroke-linejoin:round;stroke-miterlimit:10;}
	.st243{fill:url(#SVGID_150_);}
	.st244{fill:none;stroke:#05FCAC;stroke-width:1.4882;stroke-linecap:round;stroke-linejoin:round;stroke-miterlimit:10;}
	.st245{fill:none;stroke:#03D5F8;stroke-width:1.4882;stroke-linecap:round;stroke-linejoin:round;stroke-miterlimit:10;}
	.st246{fill:url(#SVGID_151_);}
	.st247{fill:url(#SVGID_152_);}
	.st248{fill:url(#SVGID_153_);}
	.st249{fill:none;stroke:#05FCAC;stroke-width:1.0508;stroke-linecap:round;stroke-linejoin:round;stroke-miterlimit:10;}
	.st250{clip-path:url(#SVGID_155_);fill:#03D5F8;}
	.st251{fill:none;stroke:#05FCAC;stroke-width:0.9091;stroke-linecap:round;stroke-linejoin:round;stroke-miterlimit:10;}
	.st252{fill:none;stroke:#03D5F7;stroke-width:0.9091;stroke-linecap:round;stroke-linejoin:round;stroke-miterlimit:10;}
	.st253{fill:none;}
	.st254{fill:url(#SVGID_156_);}
	.st255{fill:url(#SVGID_157_);}
	.st256{fill:url(#SVGID_158_);}
	.st257{fill:url(#SVGID_159_);}
	.st258{fill:url(#SVGID_160_);}
	.st259{fill:none;stroke:#03D5F8;stroke-width:1.4195;stroke-linecap:round;stroke-linejoin:round;stroke-miterlimit:10;}
	.st260{clip-path:url(#SVGID_162_);fill:#03D5F8;}
	.st261{opacity:0.5;fill:none;stroke:#FFFFFF;stroke-width:0.5;stroke-miterlimit:10;}
	.st262{fill:none;stroke:#23262D;stroke-width:0.5;stroke-miterlimit:10;}
	.st263{fill:url(#SVGID_163_);}
	.st264{fill:url(#SVGID_164_);}
	.st265{fill:url(#SVGID_165_);}
	.st266{clip-path:url(#SVGID_167_);fill:#FFFFFF;}
	.st267{opacity:0.5;fill:#F8306D;}
	
		.st268{opacity:0.5;fill:none;stroke:#FFFFFF;stroke-width:0.8898;stroke-linecap:round;stroke-linejoin:round;stroke-miterlimit:10;}
	.st269{fill:url(#SVGID_168_);}
	.st270{fill:url(#SVGID_169_);}
	.st271{fill:url(#SVGID_170_);}
	.st272{fill:#FFFFFF;stroke:#FFFFFF;stroke-width:0.3;stroke-linecap:round;stroke-linejoin:round;stroke-miterlimit:10;}
	.st273{clip-path:url(#SVGID_172_);fill:#FFFFFF;}
	.st274{clip-path:url(#SVGID_174_);fill:#FFFFFF;}
	.st275{fill:none;stroke:#FFFFFF;stroke-width:0.88;stroke-miterlimit:10;}
	.st276{fill:url(#SVGID_175_);}
	.st277{fill:url(#SVGID_176_);}
	.st278{fill:url(#SVGID_177_);}
	.st279{fill:url(#SVGID_178_);}
	.st280{fill:none;stroke:#31323C;stroke-miterlimit:10;}
	.st281{fill:url(#SVGID_179_);}
	.st282{fill:url(#SVGID_180_);}
	.st283{clip-path:url(#SVGID_182_);fill:#FFFFFF;}
	.st284{fill:url(#SVGID_183_);}
	.st285{fill:url(#SVGID_184_);}
	.st286{fill:url(#SVGID_185_);}
	.st287{clip-path:url(#SVGID_187_);fill:#FFFFFF;}
	.st288{fill:url(#SVGID_188_);}
	.st289{opacity:0.5;fill:#03D5F7;}
	.st290{fill:url(#SVGID_189_);}
	.st291{fill:url(#SVGID_190_);}
	.st292{fill:url(#SVGID_191_);}
	.st293{clip-path:url(#SVGID_193_);fill:#FFFFFF;}
	.st294{fill:none;stroke:url(#SVGID_194_);stroke-width:0.586;stroke-miterlimit:10;}
	.st295{fill:url(#SVGID_195_);}
	.st296{fill:url(#SVGID_196_);}
	.st297{fill:url(#SVGID_197_);}
	.st298{fill:url(#SVGID_198_);}
	.st299{fill:url(#SVGID_199_);}
	.st300{fill:url(#SVGID_200_);}
	.st301{fill:url(#SVGID_201_);}
	.st302{fill:url(#SVGID_202_);}
	.st303{clip-path:url(#SVGID_204_);fill:#FFFFFF;}
	.st304{fill:url(#SVGID_205_);}
	.st305{fill:url(#SVGID_206_);}
	.st306{fill:url(#SVGID_207_);}
	.st307{fill:url(#SVGID_208_);}
	.st308{fill:url(#SVGID_209_);}
	.st309{fill:url(#SVGID_210_);}
	.st310{fill:url(#SVGID_211_);}
	.st311{fill:url(#SVGID_212_);}
	.st312{fill:url(#SVGID_213_);}
	.st313{fill:url(#SVGID_214_);}
	.st314{fill:url(#SVGID_215_);}
	.st315{fill:url(#SVGID_216_);}
	.st316{fill:url(#SVGID_217_);}
	.st317{fill:url(#SVGID_218_);}
	.st318{fill:url(#SVGID_219_);}
	.st319{fill:url(#SVGID_220_);}
	.st320{fill:url(#SVGID_221_);}
	.st321{fill:url(#SVGID_222_);}
	.st322{fill:url(#SVGID_223_);}
	.st323{fill:url(#SVGID_224_);}
	.st324{fill:url(#SVGID_225_);}
	.st325{fill:url(#SVGID_226_);}
	.st326{fill:url(#SVGID_227_);}
	.st327{fill:none;stroke:url(#SVGID_228_);stroke-width:0.5;stroke-linecap:round;stroke-miterlimit:10;}
	.st328{fill:none;stroke:url(#SVGID_229_);stroke-width:0.5;stroke-linecap:round;stroke-miterlimit:10;}
	.st329{fill:none;stroke:#BBBBBB;stroke-width:0.5;stroke-miterlimit:10;}
	.st330{fill:none;stroke:#BBBBBB;stroke-width:0.5;stroke-linecap:round;stroke-miterlimit:10;}
	.st331{fill:#BBBBBB;}
	.st332{fill:url(#SVGID_230_);}
	.st333{fill:url(#SVGID_231_);}
	.st334{fill:url(#SVGID_232_);}
	.st335{clip-path:url(#SVGID_234_);fill:#FFFFFF;}
	.st336{fill:url(#SVGID_235_);}
	.st337{fill:url(#SVGID_236_);}
	.st338{fill:url(#SVGID_237_);}
	.st339{fill:url(#SVGID_238_);}
	.st340{clip-path:url(#SVGID_240_);fill:#FFFFFF;}
	.st341{fill:url(#SVGID_241_);}
	.st342{fill:url(#SVGID_242_);}
	.st343{fill:url(#SVGID_243_);}
	.st344{fill:url(#SVGID_244_);}
	.st345{fill:url(#SVGID_245_);}
	.st346{clip-path:url(#SVGID_247_);fill:#FFFFFF;}
	.st347{fill:url(#SVGID_248_);}
	.st348{fill:url(#SVGID_249_);}
	.st349{fill:url(#SVGID_250_);}
	.st350{fill:url(#SVGID_251_);}
	.st351{fill:url(#SVGID_252_);}
	.st352{fill:url(#SVGID_253_);}
	.st353{fill:url(#SVGID_254_);}
	.st354{fill:url(#SVGID_255_);}
	.st355{fill:url(#SVGID_256_);}
</style>
<g id="Layer_4">
</g>
<g id="Layer_3">
</g>
<g id="Layer_5">
</g>
<g id="Layer_2">
</g>
<g id="Layer_1">
	<g>
		<linearGradient id="SVGID_1_" gradientUnits="userSpaceOnUse" x1="0" y1="7.0898" x2="47.5583" y2="7.0898">
			<stop  offset="0" style="stop-color:#03D5F7"/>
			<stop  offset="1" style="stop-color:#05FBAC"/>
		</linearGradient>
		<path class="st12" d="M43.2,14.18H2.51c-0.75,0-1.45-0.34-1.93-0.92c-0.49-0.6-0.68-1.38-0.53-2.15L1.9,2.04
			C2.14,0.86,3.18,0,4.36,0h40.69c0.75,0,1.45,0.34,1.93,0.92c0.49,0.6,0.68,1.38,0.53,2.15l-1.85,9.07
			C45.42,13.32,44.38,14.18,43.2,14.18z M4.36,0.59c-0.91,0-1.7,0.66-1.88,1.57l-1.85,9.07c-0.12,0.59,0.03,1.2,0.41,1.66
			c0.37,0.45,0.91,0.71,1.48,0.71H43.2c0.91,0,1.7-0.66,1.88-1.57l1.85-9.07c0.12-0.59-0.03-1.2-0.41-1.66
			c-0.37-0.45-0.91-0.71-1.48-0.71H4.36z"/>
		<g>
			<linearGradient id="SVGID_2_" gradientUnits="userSpaceOnUse" x1="-4.6237" y1="7.0296" x2="59.7162" y2="7.0296">
				<stop  offset="0" style="stop-color:#03D5F7"/>
				<stop  offset="1" style="stop-color:#05FBAC"/>
			</linearGradient>
			<path class="st14" d="M9.04,7.67l-0.4,2.32H7.89l1.02-5.92l1.95,0c0.6,0,1.07,0.16,1.39,0.49c0.33,0.32,0.47,0.75,0.42,1.29
				C12.62,6.42,12.4,6.86,12,7.19c-0.4,0.33-0.92,0.49-1.57,0.49L9.04,7.67z M9.15,7.03l1.3,0c0.41,0,0.74-0.1,1.01-0.31
				c0.26-0.21,0.42-0.5,0.46-0.87c0.04-0.33-0.03-0.6-0.2-0.81c-0.18-0.21-0.44-0.32-0.78-0.33l-1.38,0L9.15,7.03z"/>
			<linearGradient id="SVGID_3_" gradientUnits="userSpaceOnUse" x1="-4.6237" y1="7.7447" x2="59.7162" y2="7.7447">
				<stop  offset="0" style="stop-color:#03D5F7"/>
				<stop  offset="1" style="stop-color:#05FBAC"/>
			</linearGradient>
			<path class="st15" d="M15.55,6.26l-0.34-0.04c-0.46,0-0.83,0.21-1.1,0.64l-0.53,3.12h-0.73l0.75-4.4l0.7,0L14.19,6.1
				c0.31-0.41,0.67-0.61,1.09-0.6c0.09,0,0.2,0.02,0.35,0.06L15.55,6.26z"/>
			<linearGradient id="SVGID_4_" gradientUnits="userSpaceOnUse" x1="-4.6237" y1="7.7893" x2="59.7162" y2="7.7893">
				<stop  offset="0" style="stop-color:#03D5F7"/>
				<stop  offset="1" style="stop-color:#05FBAC"/>
			</linearGradient>
			<path style="fill:url(#SVGID_4_);" d="M17.38,10.07c-0.54-0.01-0.96-0.21-1.27-0.61c-0.3-0.39-0.43-0.89-0.39-1.51l0.02-0.17
				c0.05-0.44,0.17-0.83,0.38-1.19c0.21-0.36,0.47-0.63,0.77-0.82c0.3-0.18,0.63-0.27,0.98-0.26c0.45,0.01,0.8,0.16,1.05,0.45
				s0.39,0.68,0.42,1.18c0.01,0.18,0,0.35-0.02,0.53l-0.04,0.34h-2.84c-0.05,0.4,0.02,0.74,0.19,1.02s0.44,0.42,0.8,0.43
				c0.43,0.01,0.82-0.18,1.19-0.58l0.42,0.36c-0.18,0.27-0.42,0.47-0.7,0.62C18.06,10,17.74,10.07,17.38,10.07z M17.85,6.12
				c-0.3-0.01-0.56,0.09-0.79,0.31c-0.22,0.21-0.4,0.53-0.53,0.95l2.11,0l0.02-0.06c0.04-0.34-0.01-0.62-0.16-0.85
				C18.34,6.25,18.13,6.13,17.85,6.12z"/>
			<linearGradient id="SVGID_5_" gradientUnits="userSpaceOnUse" x1="-4.6237" y1="7.7486" x2="59.7162" y2="7.7486">
				<stop  offset="0" style="stop-color:#03D5F7"/>
				<stop  offset="1" style="stop-color:#05FBAC"/>
			</linearGradient>
			<path style="fill:url(#SVGID_5_);" d="M21.2,5.59l-0.09,0.49c0.36-0.39,0.8-0.58,1.32-0.57c0.28,0.01,0.51,0.07,0.7,0.19
				c0.19,0.12,0.32,0.29,0.4,0.52c0.41-0.48,0.89-0.72,1.44-0.71c0.43,0.01,0.75,0.16,0.96,0.44c0.21,0.28,0.28,0.67,0.23,1.15
				l-0.48,2.89h-0.72l0.47-2.9c0.02-0.14,0.02-0.27,0-0.39c-0.05-0.37-0.29-0.56-0.71-0.56c-0.26-0.01-0.5,0.08-0.72,0.25
				c-0.22,0.17-0.35,0.4-0.42,0.68l-0.49,2.92h-0.73l0.48-2.89c0.04-0.3-0.01-0.53-0.13-0.7c-0.12-0.16-0.32-0.25-0.58-0.25
				c-0.45-0.01-0.81,0.2-1.08,0.63l-0.55,3.21h-0.73l0.75-4.4L21.2,5.59z"/>
			<linearGradient id="SVGID_6_" gradientUnits="userSpaceOnUse" x1="-4.6237" y1="6.9868" x2="59.7162" y2="6.9868">
				<stop  offset="0" style="stop-color:#03D5F7"/>
				<stop  offset="1" style="stop-color:#05FBAC"/>
			</linearGradient>
			<path class="st21" d="M27.58,9.99h-0.72l0.75-4.4h0.72L27.58,9.99z M28.18,3.99c0.12-0.01,0.23,0.03,0.31,0.11
				c0.08,0.08,0.12,0.19,0.12,0.32c0,0.13-0.04,0.23-0.12,0.31s-0.18,0.12-0.31,0.13c-0.13,0.01-0.23-0.03-0.31-0.11
				c-0.08-0.08-0.12-0.18-0.12-0.31c0-0.13,0.04-0.23,0.12-0.32C27.95,4.04,28.05,3.99,28.18,3.99z"/>
			<linearGradient id="SVGID_7_" gradientUnits="userSpaceOnUse" x1="-4.6237" y1="7.8301" x2="59.7162" y2="7.8301">
				<stop  offset="0" style="stop-color:#03D5F7"/>
				<stop  offset="1" style="stop-color:#05FBAC"/>
			</linearGradient>
			<path class="st22" d="M31.52,9.55c-0.34,0.35-0.77,0.53-1.3,0.52c-0.42-0.01-0.72-0.16-0.92-0.45c-0.2-0.29-0.27-0.68-0.22-1.19
				l0.47-2.84h0.73l-0.47,2.85c-0.01,0.12-0.02,0.24-0.01,0.35c0.01,0.2,0.07,0.35,0.17,0.46s0.24,0.17,0.42,0.18
				c0.52,0.02,0.92-0.2,1.2-0.64l0.55-3.2h0.73l-0.75,4.4h-0.69L31.52,9.55z"/>
			<linearGradient id="SVGID_8_" gradientUnits="userSpaceOnUse" x1="-4.6237" y1="7.7486" x2="59.7162" y2="7.7486">
				<stop  offset="0" style="stop-color:#03D5F7"/>
				<stop  offset="1" style="stop-color:#05FBAC"/>
			</linearGradient>
			<path class="st28" d="M34.63,5.59l-0.09,0.49c0.36-0.39,0.8-0.58,1.32-0.57c0.28,0.01,0.51,0.07,0.7,0.19
				c0.19,0.12,0.32,0.29,0.4,0.52c0.41-0.48,0.89-0.72,1.44-0.71c0.43,0.01,0.75,0.16,0.96,0.44c0.21,0.28,0.28,0.67,0.23,1.15
				l-0.48,2.89h-0.72l0.47-2.9c0.02-0.14,0.02-0.27,0-0.39c-0.05-0.37-0.29-0.56-0.71-0.56c-0.26-0.01-0.5,0.08-0.72,0.25
				c-0.22,0.17-0.35,0.4-0.42,0.68l-0.49,2.92h-0.73l0.48-2.89c0.04-0.3-0.01-0.53-0.13-0.7c-0.12-0.16-0.32-0.25-0.58-0.25
				c-0.45-0.01-0.81,0.2-1.08,0.63l-0.55,3.21H33.2l0.75-4.4L34.63,5.59z"/>
		</g>
	</g>
</g>
</svg>
