<svg id="Layer_1" data-name="Layer 1" xmlns="http://www.w3.org/2000/svg" viewBox="0 0 33.9 33.9"><defs><style>.cls-1{fill:#03d5f7;}.cls-2{fill:#03d5f6;}</style></defs><path class="cls-1" d="M22.51,12.5l-1.12-1.12a1.07,1.07,0,0,0-.74-.3H12.32a1.23,1.23,0,0,0-1.24,1.24v9.26a1.24,1.24,0,0,0,1.24,1.24h9.26a1.25,1.25,0,0,0,1.24-1.24V13.25A1.06,1.06,0,0,0,22.51,12.5Zm-2,3.94H13.42a.87.87,0,0,0-.88.87V21.8h-.22a.22.22,0,0,1-.22-.22V12.32a.22.22,0,0,1,.22-.22H13v2.53a.87.87,0,0,0,.87.88H20a.87.87,0,0,0,.88-.88V12.31l.93.94v8.33a.22.22,0,0,1-.22.22h-.22V17.31A.88.88,0,0,0,20.48,16.44Zm-.15,1V21.8H13.56V17.46ZM19.17,14V12.56a.51.51,0,0,0-.29-.46h1v2.39h-1A.51.51,0,0,0,19.17,14Zm-1-1.47V14a.51.51,0,0,0,.29.46H14.05V12.1h4.38A.51.51,0,0,0,18.14,12.56Z"/><path class="cls-2" d="M17,33.9A17,17,0,1,1,33.9,17,17,17,0,0,1,17,33.9ZM17,1a16,16,0,1,0,16,16A16,16,0,0,0,17,1Z"/></svg>