<svg id="Layer_1" data-name="Layer 1" xmlns="http://www.w3.org/2000/svg" viewBox="0 0 16.13 16.13"><defs><style>.cls-1{fill:#31323c;}</style></defs><path class="cls-1" d="M8.06,16.13a8.07,8.07,0,1,1,8.07-8.07A8.08,8.08,0,0,1,8.06,16.13ZM8.06.75a7.32,7.32,0,1,0,7.32,7.31A7.32,7.32,0,0,0,8.06.75Z"/><path class="cls-1" d="M5.92,12.35A2,2,0,0,1,4.53,9L5.74,7.77a.41.41,0,0,1,.56,0,.4.4,0,0,1,.12.29.39.39,0,0,1-.12.28L5.09,9.55a1.17,1.17,0,1,0,1.66,1.66L8.32,9.64a1.14,1.14,0,0,0,.35-.83A1.13,1.13,0,0,0,8.32,8a.64.64,0,0,0-.15-.13A.39.39,0,0,1,8,7.59a.46.46,0,0,1,.07-.3.42.42,0,0,1,.33-.16.39.39,0,0,1,.23.07,3,3,0,0,1,.26.21,2,2,0,0,1,.57,1.4,1.92,1.92,0,0,1-.57,1.39L7.31,11.78a1.94,1.94,0,0,1-1.39.57Z"/><path class="cls-1" d="M7.73,9.35a.48.48,0,0,1-.23-.07,3,3,0,0,1-.26-.22l0,0a.69.69,0,0,1-.11-.13l0,0v0A.76.76,0,0,1,7,8.75v0a.6.6,0,0,1-.09-.15,2,2,0,0,1-.23-.91,2,2,0,0,1,.58-1.4L8.81,4.7a2,2,0,0,1,1.4-.58,2,2,0,0,1,1.39.58,2,2,0,0,1,0,2.79L10.39,8.7a.39.39,0,0,1-.28.12.4.4,0,0,1-.28-.68L11,6.92a1.16,1.16,0,0,0,.34-.83,1.17,1.17,0,0,0-2-.83L7.8,6.84A1.18,1.18,0,0,0,7.54,8.1l0,.1h0l0,.07,0,0,0,0,0,0,0,0,.06.07h0L8,8.63a.4.4,0,0,1,.1.55A.4.4,0,0,1,7.73,9.35Z"/></svg>