<svg id="Layer_1" data-name="Layer 1" xmlns="http://www.w3.org/2000/svg" viewBox="0 0 16.13 16.13"><defs><style>.cls-1{fill:#05fcac;}.cls-2{fill:#03d5f8;}</style></defs><path class="cls-1" d="M8.06,14.48H1.64V8.06a6.42,6.42,0,1,1,6.42,6.42ZM2.43,13.7H8.06A5.64,5.64,0,1,0,2.43,8.06Z"/><path class="cls-2" d="M8.93,6a.32.32,0,0,1,.1.22.39.39,0,0,1-.12.31.5.5,0,0,1-.37.07l-.9-.06-.84,0c-.16.78-.3,1.56-.43,2.35,0,.29-.1.63-.15,1s-.08.69-.1.92a.38.38,0,0,1-.15.29.65.65,0,0,1-.34.1A.44.44,0,0,1,5.31,11a.31.31,0,0,1-.12-.26c0-.1,0-.27,0-.51s.07-.48.11-.74.08-.48.11-.67.1-.65.16-1,.12-.62.18-.91c0-.06,0-.13,0-.22s0-.17.06-.27a4.69,4.69,0,0,0-1,.1,1,1,0,0,0-.51.23.52.52,0,0,0-.15.38.8.8,0,0,0,.13.42.16.16,0,0,1,0,.09A.29.29,0,0,1,4.27,8a.46.46,0,0,1-.29.1A.26.26,0,0,1,3.8,8a.66.66,0,0,1-.21-.31,1.06,1.06,0,0,1-.08-.45,1.12,1.12,0,0,1,.35-.87,2.18,2.18,0,0,1,1.07-.48,9.48,9.48,0,0,1,1.86-.15l1.11,0c.28,0,.53,0,.73.08A.6.6,0,0,1,8.93,6Z"/><path class="cls-2" d="M7.69,10.79a1.25,1.25,0,0,1-.34-.93,2,2,0,0,1,.2-.9,1.56,1.56,0,0,1,.53-.6,1.23,1.23,0,0,1,.68-.21.7.7,0,0,1,.54.21.72.72,0,0,1,.2.53.79.79,0,0,1-.12.45.37.37,0,0,1-.5.13.19.19,0,0,1-.08-.16.36.36,0,0,1,0-.1.64.64,0,0,1,0-.09.57.57,0,0,0,0-.18.21.21,0,0,0,0-.12.17.17,0,0,0-.12-.05.39.39,0,0,0-.27.13.9.9,0,0,0-.21.36,1.53,1.53,0,0,0-.07.49c0,.49.21.73.64.73a1.09,1.09,0,0,0,.56-.17,2.38,2.38,0,0,0,.6-.53.23.23,0,0,1,.17-.08.15.15,0,0,1,.13.07.41.41,0,0,1,.05.21.6.6,0,0,1-.13.4,2.08,2.08,0,0,1-.71.57,1.93,1.93,0,0,1-.81.2A1.31,1.31,0,0,1,7.69,10.79Z"/><path class="cls-2" d="M10,10.79a1.25,1.25,0,0,1-.34-.93,2,2,0,0,1,.2-.9,1.56,1.56,0,0,1,.53-.6,1.23,1.23,0,0,1,.68-.21.69.69,0,0,1,.54.21.72.72,0,0,1,.2.53.79.79,0,0,1-.12.45.37.37,0,0,1-.5.13.19.19,0,0,1-.07-.16.34.34,0,0,1,0-.1.64.64,0,0,1,0-.09.57.57,0,0,0,0-.18.16.16,0,0,0,0-.12.17.17,0,0,0-.12-.05.39.39,0,0,0-.27.13.9.9,0,0,0-.21.36,1.53,1.53,0,0,0-.07.49.88.88,0,0,0,.15.55.52.52,0,0,0,.42.18.72.72,0,0,0,.4-.12,1.66,1.66,0,0,0,.36-.38A.21.21,0,0,1,12,9.89a.15.15,0,0,1,.13.07.41.41,0,0,1,0,.21.72.72,0,0,1-.11.4,1.39,1.39,0,0,1-.45.42,1.36,1.36,0,0,1-.65.16A1.24,1.24,0,0,1,10,10.79Z"/></svg>