<?xml version="1.0" encoding="UTF-8"?><svg id="Layer_2" xmlns="http://www.w3.org/2000/svg" width="20.643" height="23.4406" xmlns:xlink="http://www.w3.org/1999/xlink" viewBox="0 0 20.643 23.4406"><defs><style>.cls-1{fill:url(#linear-gradient);}.cls-2{fill:url(#linear-gradient-2);}</style><linearGradient id="linear-gradient" x1="-.7352" y1="475.4295" x2="19.4941" y2="455.2003" gradientTransform="translate(0 475.0272) scale(1 -1)" gradientUnits="userSpaceOnUse"><stop offset="0" stop-color="#05fcac"/><stop offset="1" stop-color="#03d5f7"/></linearGradient><linearGradient id="linear-gradient-2" x1="-3.5358" y1="472.629" x2="16.6935" y2="452.3998" xlink:href="#linear-gradient"/></defs><g id="Layer_1-2"><g><path class="cls-1" d="M11.2208,3.883v4.2797c0,.1841,.1295,.3447,.3105,.3781,2.3295,.43,4.0999,2.4751,4.0999,4.9272s-1.7704,4.4971-4.0999,4.9272c-.181,.0334-.3105,.1941-.3105,.3781v4.2797c0,.2301,.1998,.409,.4287,.3856,5.0519-.5158,8.9935-4.7826,8.9935-9.9706S16.7014,4.0132,11.6495,3.4974c-.2289-.0234-.4287,.1556-.4287,.3856Z"/><path class="cls-2" d="M9.4222,18.7733c0-.1841-.1295-.3447-.3105-.3781-2.3295-.43-4.0999-2.4751-4.0999-4.9272v-4.625c0-.2136,.1732-.3868,.3868-.3868h3.6369c.2136,0,.3868-.1732,.3868-.3868V3.8311c0-.2136-.1732-.3868-.3868-.3868H5.0289c-.1578,0-.2946-.1008-.3513-.248C4.0016,1.4406,2.3666,.1611,.414,.0013c-.2235-.0183-.414,.1626-.414,.3868V13.4679c0,5.188,3.9416,9.4548,8.9935,9.9706,.2289,.0234,.4287-.1556,.4287-.3856v-4.2797h0Z"/></g></g></svg>