<svg width="116" height="102" viewBox="0 0 116 102" fill="none" xmlns="http://www.w3.org/2000/svg">
<path d="M64.3051 0.186934C63.4017 0.566162 62.8122 1.4511 62.8122 2.43313V29.0714L2.41593 29.0714C1.08238 29.0714 -5.82914e-08 30.1605 0 31.5024L1.68961e-06 70.3976C1.7479e-06 71.7395 1.08238 72.8287 2.41593 72.8287H62.8124V99.569C62.8124 100.551 63.4019 101.436 64.3006 101.815C65.2041 102.19 66.243 101.985 66.934 101.29L115.29 52.7927C115.744 52.3358 116 51.7182 116 51.0716C116 50.425 115.744 49.8074 115.294 49.3505L66.9387 0.712015C66.2475 0.0166884 65.2088 -0.192294 64.3051 0.186934Z" fill="#03D5F7"/>
<path d="M64.3051 0.186934C63.4017 0.566162 62.8122 1.4511 62.8122 2.43313V29.0714L2.41593 29.0714C1.08238 29.0714 -5.82914e-08 30.1605 0 31.5024L1.68961e-06 70.3976C1.7479e-06 71.7395 1.08238 72.8287 2.41593 72.8287H62.8124V99.569C62.8124 100.551 63.4019 101.436 64.3006 101.815C65.2041 102.19 66.243 101.985 66.934 101.29L115.29 52.7927C115.744 52.3358 116 51.7182 116 51.0716C116 50.425 115.744 49.8074 115.294 49.3505L66.9387 0.712015C66.2475 0.0166884 65.2088 -0.192294 64.3051 0.186934Z" fill="url(#paint0_linear)"/>
<defs>
<linearGradient id="paint0_linear" x1="3.00771e-07" y1="81.6" x2="97.8959" y2="81.5806" gradientUnits="userSpaceOnUse">
<stop stop-color="#31343C"/>
<stop offset="1" stop-color="#03D5F7"/>
</linearGradient>
</defs>
</svg>
